<?xml version="1.0" encoding="UTF-8" standalone="no"?>
<!DOCTYPE svg PUBLIC "-//W3C//DTD SVG 1.1//EN"
 "http://www.w3.org/Graphics/SVG/1.1/DTD/svg11.dtd">
<!-- Generated by graphviz version 2.26.3 (20100126.1600)
 -->
<!-- Title: G Pages: 1 -->
<svg width="476pt" height="774pt"
 viewBox="0.00 0.00 476.00 774.00" xmlns="http://www.w3.org/2000/svg" xmlns:xlink="http://www.w3.org/1999/xlink">
<g id="graph1" class="graph" transform="scale(1 1) rotate(0) translate(4 770)">
<title>G</title>
<polygon fill="white" stroke="white" points="-4,5 -4,-770 473,-770 473,5 -4,5"/>
<g id="graph2" class="cluster"><title>cluster_global</title>
<polyline fill="none" stroke="gray" points="20,-8 448,-8 "/>
<path fill="none" stroke="gray" d="M448,-8C454,-8 460,-14 460,-20"/>
<polyline fill="none" stroke="gray" points="460,-20 460,-664 "/>
<path fill="none" stroke="gray" d="M460,-664C460,-670 454,-676 448,-676"/>
<polyline fill="none" stroke="gray" points="448,-676 20,-676 "/>
<path fill="none" stroke="gray" d="M20,-676C14,-676 8,-670 8,-664"/>
<polyline fill="none" stroke="gray" points="8,-664 8,-20 "/>
<path fill="none" stroke="gray" d="M8,-20C8,-14 14,-8 20,-8"/>
<text text-anchor="middle" x="234" y="-662.1" font-family="Times Roman,serif" font-size="11.00" fill="gray">global</text>
</g>
<g id="graph3" class="cluster"><title>cluster_ns</title>
<polyline fill="none" stroke="gray" points="334,-684 390,-684 "/>
<path fill="none" stroke="gray" d="M390,-684C396,-684 402,-690 402,-696"/>
<polyline fill="none" stroke="gray" points="402,-696 402,-746 "/>
<path fill="none" stroke="gray" d="M402,-746C402,-752 396,-758 390,-758"/>
<polyline fill="none" stroke="gray" points="390,-758 334,-758 "/>
<path fill="none" stroke="gray" d="M334,-758C328,-758 322,-752 322,-746"/>
<polyline fill="none" stroke="gray" points="322,-746 322,-696 "/>
<path fill="none" stroke="gray" d="M322,-696C322,-690 328,-684 334,-684"/>
<text text-anchor="middle" x="362" y="-744.1" font-family="Times Roman,serif" font-size="11.00" fill="gray">ns</text>
</g>
<!-- \\DBManager -->
<g id="node2" class="node"><title>\\DBManager</title>
<a xlink:href="includes.conexion.class.html" xlink:title="DBManager" target="_parent">
<polygon fill="none" stroke="black" points="400,-646 324,-646 324,-610 400,-610 400,-646"/>
<text text-anchor="middle" x="362" y="-625.1" font-family="Courier,monospace" font-size="11.00">DBManager</text>
</a>
</g>
<!-- \\Cpdf -->
<g id="node3" class="node"><title>\\Cpdf</title>
<a xlink:href="includes.class.pdf.html" xlink:title="Cpdf" target="_parent">
<polygon fill="none" stroke="black" points="70,-214 16,-214 16,-178 70,-178 70,-214"/>
<text text-anchor="middle" x="43" y="-193.1" font-family="Courier,monospace" font-size="11.00">Cpdf</text>
</a>
</g>
<!-- \\MathRenderer -->
<g id="node4" class="node"><title>\\MathRenderer</title>
<a xlink:href="includes.Math.html" xlink:title="MathRenderer" target="_parent">
<polygon fill="none" stroke="black" points="411,-592 313,-592 313,-556 411,-556 411,-592"/>
<text text-anchor="middle" x="362" y="-571.1" font-family="Courier,monospace" font-size="11.00">MathRenderer</text>
</a>
</g>
<!-- \\WKPDF -->
<g id="node5" class="node"><title>\\WKPDF</title>
<a xlink:href="includes.integrado.html" xlink:title="WKPDF" target="_parent">
<polygon fill="none" stroke="black" points="389,-538 335,-538 335,-502 389,-502 389,-538"/>
<text text-anchor="middle" x="362" y="-517.1" font-family="Courier,monospace" font-size="11.00">WKPDF</text>
</a>
</g>
<!-- \\FPDF -->
<g id="node6" class="node"><title>\\FPDF</title>
<a xlink:href="includes.fpdf.html" xlink:title="FPDF" target="_parent">
<polygon fill="none" stroke="black" points="389,-484 335,-484 335,-448 389,-448 389,-484"/>
<text text-anchor="middle" x="362" y="-463.1" font-family="Courier,monospace" font-size="11.00">FPDF</text>
</a>
</g>
<!-- \\Cezpdf -->
<g id="node7" class="node"><title>\\Cezpdf</title>
<a xlink:href="includes.class.ezpdf.html" xlink:title="Cezpdf" target="_parent">
<polygon fill="none" stroke="black" points="199,-214 143,-214 143,-178 199,-178 199,-214"/>
<text text-anchor="middle" x="171" y="-193.1" font-family="Courier,monospace" font-size="11.00">Cezpdf</text>
</a>
</g>
<!-- \\Cezpdf&#45;&gt;\\Cpdf -->
<g id="edge4" class="edge"><title>\\Cezpdf&#45;&gt;\\Cpdf</title>
<path fill="none" stroke="black" d="M142.274,-196C124.03,-196 100.225,-196 80.4989,-196"/>
<polygon fill="none" stroke="black" points="80.3145,-192.5 70.3145,-196 80.3144,-199.5 80.3145,-192.5"/>
</g>
<!-- \\SimpleImage -->
<g id="node8" class="node"><title>\\SimpleImage</title>
<a xlink:href="includes.resize.html" xlink:title="SimpleImage" target="_parent">
<polygon fill="none" stroke="black" points="407,-430 317,-430 317,-394 407,-394 407,-430"/>
<text text-anchor="middle" x="362" y="-409.1" font-family="Courier,monospace" font-size="11.00">SimpleImage</text>
</a>
</g>
<!-- \\GoogChart -->
<g id="node9" class="node"><title>\\GoogChart</title>
<a xlink:href="includes.GoogChart.class.html" xlink:title="GoogChart" target="_parent">
<polygon fill="none" stroke="black" points="400,-376 324,-376 324,-340 400,-340 400,-376"/>
<text text-anchor="middle" x="362" y="-355.1" font-family="Courier,monospace" font-size="11.00">GoogChart</text>
</a>
</g>
<!-- \\HTML_TO_PDF -->
<g id="node10" class="node"><title>\\HTML_TO_PDF</title>
<a xlink:href="includes.html_to_pdf.inc.html" xlink:title="HTML_TO_PDF" target="_parent">
<polygon fill="none" stroke="black" points="407,-322 317,-322 317,-286 407,-286 407,-322"/>
<text text-anchor="middle" x="362" y="-301.1" font-family="Courier,monospace" font-size="11.00">HTML_TO_PDF</text>
</a>
</g>
<!-- \\resize -->
<g id="node11" class="node"><title>\\resize</title>
<a xlink:href="includes.resize-class.html" xlink:title="resize" target="_parent">
<polygon fill="none" stroke="black" points="390,-268 334,-268 334,-232 390,-232 390,-268"/>
<text text-anchor="middle" x="362" y="-247.1" font-family="Courier,monospace" font-size="11.00">resize</text>
</a>
</g>
<!-- \\Creport -->
<g id="node12" class="node"><title>\\Creport</title>
<a xlink:href="includes.readme.html" xlink:title="Creport" target="_parent">
<polygon fill="none" stroke="black" points="394,-214 330,-214 330,-178 394,-178 394,-214"/>
<text text-anchor="middle" x="362" y="-193.1" font-family="Courier,monospace" font-size="11.00">Creport</text>
</a>
</g>
<!-- \\Creport&#45;&gt;\\Cezpdf -->
<g id="edge6" class="edge"><title>\\Creport&#45;&gt;\\Cezpdf</title>
<path fill="none" stroke="black" d="M329.599,-196C296.612,-196 245.444,-196 210.195,-196"/>
<polygon fill="none" stroke="black" points="209.805,-192.5 199.805,-196 209.805,-199.5 209.805,-192.5"/>
</g>
<!-- \\OLERead -->
<g id="node13" class="node"><title>\\OLERead</title>
<a xlink:href="ruta.excel_reader2.html" xlink:title="OLERead" target="_parent">
<polygon fill="none" stroke="black" points="394,-160 330,-160 330,-124 394,-124 394,-160"/>
<text text-anchor="middle" x="362" y="-139.1" font-family="Courier,monospace" font-size="11.00">OLERead</text>
</a>
</g>
<!-- \\Spreadsheet_Excel_Reader -->
<g id="node14" class="node"><title>\\Spreadsheet_Excel_Reader</title>
<a xlink:href="ruta.excel_reader2.html" xlink:title="Spreadsheet_Excel_Reader" target="_parent">
<polygon fill="none" stroke="black" points="451,-106 273,-106 273,-70 451,-70 451,-106"/>
<text text-anchor="middle" x="362" y="-85.1" font-family="Courier,monospace" font-size="11.00">Spreadsheet_Excel_Reader</text>
</a>
</g>
<!-- \\Alumnos -->
<g id="node15" class="node"><title>\\Alumnos</title>
<a xlink:href="ruta.seleccion.html" xlink:title="Alumnos" target="_parent">
<polygon fill="none" stroke="black" points="394,-52 330,-52 330,-16 394,-16 394,-52"/>
<text text-anchor="middle" x="362" y="-31.1" font-family="Courier,monospace" font-size="11.00">Alumnos</text>
</a>
</g>
<!-- \\ns\\Alumnos -->
<g id="node17" class="node"><title>\\ns\\Alumnos</title>
<a xlink:href="demo.html" xlink:title="Alumnos" target="_parent">
<polygon fill="none" stroke="black" points="394,-728 330,-728 330,-692 394,-692 394,-728"/>
<text text-anchor="middle" x="362" y="-707.1" font-family="Courier,monospace" font-size="11.00">Alumnos</text>
</a>
</g>
</g>
</svg>
