<?xml version="1.0" encoding="UTF-8" standalone="no"?>
<svg width="640" height="480" xmlns:xlink="http://www.w3.org/1999/xlink" xmlns="http://www.w3.org/2000/svg">
 <!-- Created with SVG-edit - http://svg-edit.googlecode.com/ -->
 <g>
  <title>Layer 1</title>
  <polyline stroke-linejoin="round" stroke-linecap="round" stroke-width="5" stroke="#000000" fill="none" id="svg_1" points="214,180 213,180 211,178 209,176 205,174 200,170 189,165 177,161 160,157 143,153 125,149 108,147 92,145 79,143 68,143 58,143 41,146 39,150 37,154 34,157 34,169 34,175 34,180 34,186 34,192 34,198 34,202 37,208 38,213 41,218 45,223 48,227 52,230 55,233 57,235 60,236 64,237 68,237 73,237 90,241 99,242 110,244 120,244 130,246 138,246 145,248 153,252 154,254 155,254 156,255 157,256 158,259 158,261 159,262 159,265 160,269 160,274 160,277 160,279 160,281 158,283 157,285 155,287 153,289 149,291 146,293 143,294 136,295 130,295 101,295 87,295 74,295 63,294 53,292 45,290 37,290 32,288 29,288 28,287 27,287 25,286 25,285 25,284 25,280 25,279 25,278 25,276 27,274"/>
  <polyline stroke-linejoin="round" stroke-linecap="round" stroke-width="5" stroke="#000000" fill="none" id="svg_2" points="229,230 228,233 229,237 230,242 234,251 238,261 241,271 245,281 249,289 253,296 256,301 258,307 261,311 261,313 262,314 263,314 266,313 270,309 274,302 278,294 284,286 292,275 313,249 324,236 337,229 351,220 360,213 367,211 373,209 374,209 375,209"/>
  <polyline stroke-linejoin="round" stroke-linecap="round" stroke-width="5" stroke="#000000" fill="none" id="svg_3" points="505,206 501,207 500,208 496,210 492,211 488,213 485,216 480,220 474,223 464,231 459,235 455,239 451,243 448,246 445,249 439,257 437,261 437,266 436,270 435,273 435,276 434,279 433,282 433,284 432,287 431,290 431,293 431,296 431,298 431,301 431,304 431,307 431,311 431,313 433,318 433,319 437,323 439,325 440,326 442,327 443,328 444,328 446,328 450,328 453,328 457,328 462,328 470,326 479,324 493,320 498,319 506,317 515,315 523,313 531,312 538,309 544,307 550,305 555,303 559,300 564,296 568,292 574,282 577,278 578,273 578,267 580,263 581,260 581,259 581,257 581,256 581,255 581,254 581,253 581,252 581,250 580,249 579,248 578,248 577,248 575,248 573,249 570,250 567,251 564,252 557,254 553,255 549,256 545,257 543,257 541,257 539,257 538,258 537,258 536,258 534,259 533,259 532,260 530,260 528,261 525,262 523,262 521,263 519,264 517,265 516,266 515,267 514,267 513,267 512,267"/>
 </g>
</svg>